# Wavefront OBJ file automatically generated by Tiled2Unity

# Vertices (Count = 104)
v -192 -96 0
v -208 -96 0
v -208 -80 0
v -192 -80 0
v -160 -112 0
v -176 -112 0
v -176 -96 0
v -160 -96 0
v -192 -112 0
v -208 -112 0
v -224 -112 0
v -224 -96 0
v -240 -112 0
v -240 -96 0
v -256 -112 0
v -256 -96 0
v -272 -112 0
v -272 -96 0
v -288 -112 0
v -288 -96 0
v -304 -112 0
v -304 -96 0
v -160 -128 0
v -176 -128 0
v -256 -128 0
v -272 -128 0
v -288 -128 0
v -304 -128 0
v -160 -144 0
v -176 -144 0
v -256 -144 0
v -272 -144 0
v -288 -144 0
v -304 -144 0
v -160 -160 0
v -176 -160 0
v -192 -160 0
v -192 -144 0
v -208 -160 0
v -208 -144 0
v -224 -160 0
v -224 -144 0
v -240 -160 0
v -240 -144 0
v -256 -160 0
v -272 -160 0
v -160 -176 0
v -176 -176 0
v -192 -176 0
v -208 -176 0
v -224 -176 0
v -240 -176 0
v -256 -176 0
v -272 -176 0
v -240 -192 0
v -256 -192 0
v -192 -128 0
v -208 -128 0
v -224 -128 0
v -240 -128 0
v -144 -80 0
v -160 -80 0
v -160 -64 0
v -144 -64 0
v -176 -80 0
v -176 -64 0
v -192 -64 0
v -208 -64 0
v -224 -80 0
v -224 -64 0
v -240 -80 0
v -240 -64 0
v -256 -80 0
v -256 -64 0
v -272 -80 0
v -272 -64 0
v -288 -80 0
v -288 -64 0
v -304 -80 0
v -304 -64 0
v -320 -80 0
v -320 -64 0
v -144 -96 0
v -320 -96 0
v -144 -112 0
v -320 -112 0
v -144 -128 0
v -320 -128 0
v -144 -144 0
v -320 -144 0
v -144 -160 0
v -288 -160 0
v -304 -160 0
v -320 -160 0
v -144 -176 0
v -288 -176 0
v -144 -192 0
v -160 -192 0
v -176 -192 0
v -192 -192 0
v -208 -192 0
v -224 -192 0
v -272 -192 0
v -288 -192 0

# Texture cooridinates (Count = 72)
vt 0.02512207 0.9201221
vt 0.04987793 0.9201221
vt 0.04987793 0.9598779
vt 0.02512207 0.9598779
vt 0.0001220703 0.9201221
vt 0.02487793 0.9201221
vt 0.02487793 0.9598779
vt 0.0001220703 0.9598779
vt 0.6001221 0.5601221
vt 0.6248779 0.5601221
vt 0.6248779 0.599878
vt 0.6001221 0.599878
vt 0.4751221 0.6001221
vt 0.4998779 0.6001221
vt 0.4998779 0.6398779
vt 0.4751221 0.6398779
vt 0.3251221 0.7601221
vt 0.3498779 0.7601221
vt 0.3498779 0.7998779
vt 0.3251221 0.7998779
vt 0.3501221 0.7201221
vt 0.3748779 0.7201221
vt 0.3748779 0.7598779
vt 0.3501221 0.7598779
vt 0.4001221 0.7601221
vt 0.4248779 0.7601221
vt 0.4248779 0.7998779
vt 0.4001221 0.7998779
vt 0.3751221 0.7201221
vt 0.3998779 0.7201221
vt 0.3998779 0.7598779
vt 0.3751221 0.7598779
vt 0.3251221 0.6401221
vt 0.3498779 0.6401221
vt 0.3498779 0.6798779
vt 0.3251221 0.6798779
vt 0.5501221 0.5201221
vt 0.5748779 0.5201221
vt 0.5748779 0.5598779
vt 0.5501221 0.5598779
vt 0.525122 0.3201221
vt 0.5498779 0.3201221
vt 0.5498779 0.3598779
vt 0.525122 0.3598779
vt 0.5751221 0.3201221
vt 0.599878 0.3201221
vt 0.599878 0.3598779
vt 0.5751221 0.3598779
vt 0.3501221 0.6801221
vt 0.3748779 0.6801221
vt 0.3748779 0.719878
vt 0.3501221 0.719878
vt 0.3251221 0.6801221
vt 0.3498779 0.6801221
vt 0.3498779 0.719878
vt 0.3251221 0.719878
vt 0.5001221 0.3201221
vt 0.5248779 0.3201221
vt 0.5248779 0.3598779
vt 0.5001221 0.3598779
vt 0.2001221 0.6401221
vt 0.2248779 0.6401221
vt 0.2248779 0.6798779
vt 0.2001221 0.6798779
vt 0.3751221 0.6801221
vt 0.3998779 0.6801221
vt 0.3998779 0.719878
vt 0.3751221 0.719878
vt 0.5501221 0.3201221
vt 0.5748779 0.3201221
vt 0.5748779 0.3598779
vt 0.5501221 0.3598779

# Normal
vn 0 0 -1

# Groups (Count = 4)

g mesh_0001
f 1/1/1 2/2/1 3/3/1 4/4/1
f 5/1/1 6/2/1 7/3/1 8/4/1
f 6/1/1 9/2/1 1/3/1 7/4/1
f 10/1/1 11/2/1 12/3/1 2/4/1
f 11/1/1 13/2/1 14/3/1 12/4/1
f 13/1/1 15/2/1 16/3/1 14/4/1
f 15/1/1 17/2/1 18/3/1 16/4/1
f 17/1/1 19/2/1 20/3/1 18/4/1
f 19/1/1 21/2/1 22/3/1 20/4/1
f 23/1/1 24/2/1 6/3/1 5/4/1
f 25/5/1 26/6/1 17/7/1 15/8/1
f 26/5/1 27/6/1 19/7/1 17/8/1
f 27/1/1 28/2/1 21/3/1 19/4/1
f 29/1/1 30/2/1 24/3/1 23/4/1
f 31/1/1 32/2/1 26/3/1 25/4/1
f 32/1/1 33/2/1 27/3/1 26/4/1
f 33/1/1 34/2/1 28/3/1 27/4/1
f 35/1/1 36/2/1 30/3/1 29/4/1
f 36/5/1 37/6/1 38/7/1 30/8/1
f 37/5/1 39/6/1 40/7/1 38/8/1
f 39/5/1 41/6/1 42/7/1 40/8/1
f 41/5/1 43/6/1 44/7/1 42/8/1
f 45/1/1 46/2/1 32/3/1 31/4/1
f 47/1/1 48/2/1 36/3/1 35/4/1
f 48/1/1 49/2/1 37/3/1 36/4/1
f 49/1/1 50/2/1 39/3/1 37/4/1
f 50/1/1 51/2/1 41/3/1 39/4/1
f 51/1/1 52/2/1 43/3/1 41/4/1
f 53/1/1 54/2/1 46/3/1 45/4/1
f 55/1/1 56/2/1 53/3/1 52/4/1

g mesh_0002
f 9/9/1 10/10/1 2/11/1 1/12/1
f 24/13/1 57/14/1 9/15/1 6/16/1
f 57/13/1 58/14/1 10/15/1 9/16/1
f 58/13/1 59/14/1 11/15/1 10/16/1
f 59/13/1 60/14/1 13/15/1 11/16/1
f 60/13/1 25/14/1 15/15/1 13/16/1
f 30/13/1 38/14/1 57/15/1 24/16/1
f 38/13/1 40/14/1 58/15/1 57/16/1
f 40/13/1 42/14/1 59/15/1 58/16/1
f 42/13/1 44/14/1 60/15/1 59/16/1
f 44/13/1 31/14/1 25/15/1 60/16/1
f 36/13/1 37/14/1 38/15/1 30/16/1
f 37/13/1 39/14/1 40/15/1 38/16/1
f 39/13/1 41/14/1 42/15/1 40/16/1
f 41/13/1 43/14/1 44/15/1 42/16/1
f 43/13/1 45/14/1 31/15/1 44/16/1
f 52/13/1 53/14/1 45/15/1 43/16/1

g mesh_0003
f 61/17/1 62/18/1 63/19/1 64/20/1
f 62/17/1 65/18/1 66/19/1 63/20/1
f 65/17/1 4/18/1 67/19/1 66/20/1
f 4/17/1 3/18/1 68/19/1 67/20/1
f 3/17/1 69/18/1 70/19/1 68/20/1
f 69/17/1 71/18/1 72/19/1 70/20/1
f 71/17/1 73/18/1 74/19/1 72/20/1
f 73/17/1 75/18/1 76/19/1 74/20/1
f 75/17/1 77/18/1 78/19/1 76/20/1
f 77/17/1 79/18/1 80/19/1 78/20/1
f 79/17/1 81/18/1 82/19/1 80/20/1
f 83/17/1 8/18/1 62/19/1 61/20/1
f 8/21/1 7/22/1 65/23/1 62/24/1
f 7/25/1 1/26/1 4/27/1 65/28/1
f 1/25/1 2/26/1 3/27/1 4/28/1
f 2/25/1 12/26/1 69/27/1 3/28/1
f 12/25/1 14/26/1 71/27/1 69/28/1
f 14/25/1 16/26/1 73/27/1 71/28/1
f 16/25/1 18/26/1 75/27/1 73/28/1
f 18/25/1 20/26/1 77/27/1 75/28/1
f 20/29/1 22/30/1 79/31/1 77/32/1
f 22/17/1 84/18/1 81/19/1 79/20/1
f 85/17/1 5/18/1 8/19/1 83/20/1
f 5/33/1 6/34/1 7/35/1 8/36/1
f 6/37/1 9/38/1 1/39/1 7/40/1
f 10/37/1 11/38/1 12/39/1 2/40/1
f 11/37/1 13/38/1 14/39/1 12/40/1
f 13/37/1 15/38/1 16/39/1 14/40/1
f 15/37/1 17/38/1 18/39/1 16/40/1
f 17/37/1 19/38/1 20/39/1 18/40/1
f 19/33/1 21/34/1 22/35/1 20/36/1
f 21/17/1 86/18/1 84/19/1 22/20/1
f 87/17/1 23/18/1 5/19/1 85/20/1
f 23/33/1 24/34/1 6/35/1 5/36/1
f 27/33/1 28/34/1 21/35/1 19/36/1
f 28/17/1 88/18/1 86/19/1 21/20/1
f 89/17/1 29/18/1 23/19/1 87/20/1
f 29/33/1 30/34/1 24/35/1 23/36/1
f 31/33/1 32/34/1 26/35/1 25/36/1
f 32/41/1 33/42/1 27/43/1 26/44/1
f 33/45/1 34/46/1 28/47/1 27/48/1
f 34/17/1 90/18/1 88/19/1 28/20/1
f 91/17/1 35/18/1 29/19/1 89/20/1
f 35/49/1 36/50/1 30/51/1 29/52/1
f 45/53/1 46/54/1 32/55/1 31/56/1
f 46/17/1 92/18/1 33/19/1 32/20/1
f 92/17/1 93/18/1 34/19/1 33/20/1
f 93/17/1 94/18/1 90/19/1 34/20/1
f 95/17/1 47/18/1 35/19/1 91/20/1
f 47/57/1 48/58/1 36/59/1 35/60/1
f 48/61/1 49/62/1 37/63/1 36/64/1
f 49/61/1 50/62/1 39/63/1 37/64/1
f 50/61/1 51/62/1 41/63/1 39/64/1
f 51/41/1 52/42/1 43/43/1 41/44/1
f 53/45/1 54/46/1 46/47/1 45/48/1
f 54/17/1 96/18/1 92/19/1 46/20/1
f 97/17/1 98/18/1 47/19/1 95/20/1
f 98/17/1 99/18/1 48/19/1 47/20/1
f 99/17/1 100/18/1 49/19/1 48/20/1
f 100/17/1 101/18/1 50/19/1 49/20/1
f 101/17/1 102/18/1 51/19/1 50/20/1
f 102/17/1 55/18/1 52/19/1 51/20/1
f 55/17/1 56/18/1 53/19/1 52/20/1
f 56/17/1 103/18/1 54/19/1 53/20/1
f 103/17/1 104/18/1 96/19/1 54/20/1

g mesh_0004
f 25/21/1 26/22/1 17/23/1 15/24/1
f 26/25/1 27/26/1 19/27/1 17/28/1
f 27/65/1 28/66/1 21/67/1 19/68/1
f 36/25/1 37/26/1 38/27/1 30/28/1
f 37/25/1 39/26/1 40/27/1 38/28/1
f 39/25/1 41/26/1 42/27/1 40/28/1
f 41/29/1 43/30/1 44/31/1 42/32/1
f 52/69/1 53/70/1 45/71/1 43/72/1

