# Wavefront OBJ file automatically generated by Tiled2Unity

# Vertices (Count = 308)
v -320 -96 0
v -336 -96 0
v -336 -80 0
v -320 -80 0
v -176 -112 0
v -192 -112 0
v -192 -96 0
v -176 -96 0
v -208 -112 0
v -208 -96 0
v -224 -112 0
v -224 -96 0
v -240 -112 0
v -240 -96 0
v -256 -112 0
v -256 -96 0
v -272 -112 0
v -272 -96 0
v -288 -112 0
v -288 -96 0
v -304 -112 0
v -304 -96 0
v -320 -112 0
v -336 -112 0
v -352 -112 0
v -352 -96 0
v -368 -112 0
v -368 -96 0
v -384 -112 0
v -384 -96 0
v -176 -128 0
v -192 -128 0
v -208 -128 0
v -224 -128 0
v -240 -128 0
v -256 -128 0
v -272 -128 0
v -288 -128 0
v -304 -128 0
v -320 -128 0
v -336 -128 0
v -352 -128 0
v -368 -128 0
v -384 -128 0
v -176 -144 0
v -192 -144 0
v -208 -144 0
v -224 -144 0
v -240 -144 0
v -256 -144 0
v -272 -144 0
v -288 -144 0
v -304 -144 0
v -320 -144 0
v -336 -144 0
v -352 -144 0
v -368 -144 0
v -384 -144 0
v -176 -160 0
v -192 -160 0
v -208 -160 0
v -224 -160 0
v -240 -160 0
v -256 -160 0
v -272 -160 0
v -288 -160 0
v -304 -160 0
v -320 -160 0
v -336 -160 0
v -352 -160 0
v -368 -160 0
v -384 -160 0
v -176 -176 0
v -192 -176 0
v -208 -176 0
v -224 -176 0
v -240 -176 0
v -256 -176 0
v -272 -176 0
v -288 -176 0
v -304 -176 0
v -320 -176 0
v -336 -176 0
v -352 -176 0
v -368 -176 0
v -384 -176 0
v -176 -192 0
v -192 -192 0
v -208 -192 0
v -224 -192 0
v -240 -192 0
v -256 -192 0
v -272 -192 0
v -288 -192 0
v -304 -192 0
v -320 -192 0
v -336 -192 0
v -352 -192 0
v -368 -192 0
v -384 -192 0
v -176 -208 0
v -192 -208 0
v -208 -208 0
v -224 -208 0
v -240 -208 0
v -256 -208 0
v -272 -208 0
v -288 -208 0
v -304 -208 0
v -320 -208 0
v -336 -208 0
v -352 -208 0
v -368 -208 0
v -384 -208 0
v -176 -224 0
v -192 -224 0
v -208 -224 0
v -224 -224 0
v -240 -224 0
v -256 -224 0
v -272 -224 0
v -288 -224 0
v -304 -224 0
v -320 -224 0
v -336 -224 0
v -352 -224 0
v -368 -224 0
v -384 -224 0
v -256 -240 0
v -272 -240 0
v -288 -240 0
v -304 -240 0
v -320 -240 0
v -160 -48 0
v -176 -48 0
v -176 -32 0
v -160 -32 0
v -384 -48 0
v -400 -48 0
v -400 -32 0
v -384 -32 0
v -416 -48 0
v -416 -32 0
v -160 -64 0
v -176 -64 0
v -192 -64 0
v -192 -48 0
v -208 -64 0
v -208 -48 0
v -224 -64 0
v -224 -48 0
v -240 -64 0
v -240 -48 0
v -256 -64 0
v -256 -48 0
v -272 -64 0
v -272 -48 0
v -288 -64 0
v -288 -48 0
v -304 -64 0
v -304 -48 0
v -320 -64 0
v -320 -48 0
v -336 -64 0
v -336 -48 0
v -352 -64 0
v -352 -48 0
v -368 -64 0
v -368 -48 0
v -384 -64 0
v -400 -64 0
v -416 -64 0
v -160 -80 0
v -176 -80 0
v -192 -80 0
v -208 -80 0
v -224 -80 0
v -240 -80 0
v -256 -80 0
v -272 -80 0
v -288 -80 0
v -304 -80 0
v -352 -80 0
v -368 -80 0
v -384 -80 0
v -400 -80 0
v -416 -80 0
v -160 -96 0
v -400 -96 0
v -416 -96 0
v -160 -112 0
v -400 -112 0
v -416 -112 0
v -160 -128 0
v -400 -128 0
v -416 -128 0
v -160 -144 0
v -400 -144 0
v -416 -144 0
v -160 -160 0
v -400 -160 0
v -416 -160 0
v -160 -176 0
v -400 -176 0
v -416 -176 0
v -160 -192 0
v -400 -192 0
v -416 -192 0
v -160 -208 0
v -400 -208 0
v -416 -208 0
v -160 -224 0
v -400 -224 0
v -416 -224 0
v -160 -240 0
v -176 -240 0
v -192 -240 0
v -208 -240 0
v -224 -240 0
v -240 -240 0
v -336 -240 0
v -352 -240 0
v -368 -240 0
v -384 -240 0
v -400 -240 0
v -160 -256 0
v -176 -256 0
v -192 -256 0
v -208 -256 0
v -224 -256 0
v -240 -256 0
v -256 -256 0
v -272 -256 0
v -288 -256 0
v -304 -256 0
v -320 -256 0
v -336 -256 0
v -352 -256 0
v -368 -256 0
v -384 -256 0
v -400 -256 0
v -144 -48 0
v -144 -32 0
v -192 -32 0
v -208 -32 0
v -224 -32 0
v -240 -32 0
v -256 -32 0
v -272 -32 0
v -288 -32 0
v -304 -32 0
v -320 -32 0
v -336 -32 0
v -352 -32 0
v -368 -32 0
v -144 -64 0
v -144 -80 0
v -128 -96 0
v -144 -96 0
v -128 -80 0
v -128 -112 0
v -144 -112 0
v -128 -128 0
v -144 -128 0
v -144 -144 0
v -144 -160 0
v -144 -176 0
v -144 -192 0
v -128 -208 0
v -144 -208 0
v -128 -192 0
v -128 -224 0
v -144 -224 0
v -128 -240 0
v -144 -240 0
v -416 -240 0
v -128 -256 0
v -144 -256 0
v -416 -256 0
v -128 -272 0
v -144 -272 0
v -160 -272 0
v -176 -272 0
v -192 -272 0
v -208 -272 0
v -224 -272 0
v -240 -272 0
v -256 -272 0
v -272 -272 0
v -288 -272 0
v -304 -272 0
v -320 -272 0
v -336 -272 0
v -352 -272 0
v -368 -272 0
v -384 -272 0
v -400 -272 0
v -416 -272 0
v -192 -288 0
v -208 -288 0
v -224 -288 0
v -240 -288 0
v -256 -288 0
v -272 -288 0
v 0 -16 0
v -16 -16 0
v -16 0 0
v 0 0 0

# Texture cooridinates (Count = 252)
vt 0.2251221 0.5601221
vt 0.2498779 0.5601221
vt 0.2498779 0.599878
vt 0.2251221 0.599878
vt 0.2751221 0.6401221
vt 0.2998779 0.6401221
vt 0.2998779 0.6798779
vt 0.2751221 0.6798779
vt 0.3001221 0.6001221
vt 0.3248779 0.6001221
vt 0.3248779 0.6398779
vt 0.3001221 0.6398779
vt 0.0001220703 0.6801221
vt 0.02487793 0.6801221
vt 0.02487793 0.719878
vt 0.0001220703 0.719878
vt 0.1501221 0.6801221
vt 0.1748779 0.6801221
vt 0.1748779 0.719878
vt 0.1501221 0.719878
vt 0.3251221 0.7601221
vt 0.3498779 0.7601221
vt 0.3498779 0.7998779
vt 0.3251221 0.7998779
vt 0.0001220703 0.6401221
vt 0.02487793 0.6401221
vt 0.02487793 0.6798779
vt 0.0001220703 0.6798779
vt 0.05012207 0.6401221
vt 0.07487793 0.6401221
vt 0.07487793 0.6798779
vt 0.05012207 0.6798779
vt 0.07512207 0.6401221
vt 0.09987793 0.6401221
vt 0.09987793 0.6798779
vt 0.07512207 0.6798779
vt 0.1001221 0.6401221
vt 0.1248779 0.6401221
vt 0.1248779 0.6798779
vt 0.1001221 0.6798779
vt 0.1251221 0.6401221
vt 0.1498779 0.6401221
vt 0.1498779 0.6798779
vt 0.1251221 0.6798779
vt 0.02512207 0.6401221
vt 0.04987793 0.6401221
vt 0.04987793 0.6798779
vt 0.02512207 0.6798779
vt 0.1501221 0.6401221
vt 0.1748779 0.6401221
vt 0.1748779 0.6798779
vt 0.1501221 0.6798779
vt 0.0001220703 0.6001221
vt 0.02487793 0.6001221
vt 0.02487793 0.6398779
vt 0.0001220703 0.6398779
vt 0.05012207 0.6001221
vt 0.07487793 0.6001221
vt 0.07487793 0.6398779
vt 0.05012207 0.6398779
vt 0.07512207 0.6001221
vt 0.09987793 0.6001221
vt 0.09987793 0.6398779
vt 0.07512207 0.6398779
vt 0.1001221 0.6001221
vt 0.1248779 0.6001221
vt 0.1248779 0.6398779
vt 0.1001221 0.6398779
vt 0.1251221 0.6001221
vt 0.1498779 0.6001221
vt 0.1498779 0.6398779
vt 0.1251221 0.6398779
vt 0.02512207 0.6001221
vt 0.04987793 0.6001221
vt 0.04987793 0.6398779
vt 0.02512207 0.6398779
vt 0.1501221 0.6001221
vt 0.1748779 0.6001221
vt 0.1748779 0.6398779
vt 0.1501221 0.6398779
vt 0.0001220703 0.5601221
vt 0.02487793 0.5601221
vt 0.02487793 0.599878
vt 0.0001220703 0.599878
vt 0.05012207 0.5601221
vt 0.07487793 0.5601221
vt 0.07487793 0.599878
vt 0.05012207 0.599878
vt 0.07512207 0.5601221
vt 0.09987793 0.5601221
vt 0.09987793 0.599878
vt 0.07512207 0.599878
vt 0.1001221 0.5601221
vt 0.1248779 0.5601221
vt 0.1248779 0.599878
vt 0.1001221 0.599878
vt 0.1251221 0.5601221
vt 0.1498779 0.5601221
vt 0.1498779 0.599878
vt 0.1251221 0.599878
vt 0.02512207 0.5601221
vt 0.04987793 0.5601221
vt 0.04987793 0.599878
vt 0.02512207 0.599878
vt 0.1501221 0.5601221
vt 0.1748779 0.5601221
vt 0.1748779 0.599878
vt 0.1501221 0.599878
vt 0.0001220703 0.5201221
vt 0.02487793 0.5201221
vt 0.02487793 0.5598779
vt 0.0001220703 0.5598779
vt 0.1501221 0.5201221
vt 0.1748779 0.5201221
vt 0.1748779 0.5598779
vt 0.1501221 0.5598779
vt 0.2251221 0.7201221
vt 0.2498779 0.7201221
vt 0.2498779 0.7598779
vt 0.2251221 0.7598779
vt 0.2501221 0.7201221
vt 0.2748779 0.7201221
vt 0.2748779 0.7598779
vt 0.2501221 0.7598779
vt 0.2501221 0.7601221
vt 0.2748779 0.7601221
vt 0.2748779 0.7998779
vt 0.2501221 0.7998779
vt 0.3001221 0.6801221
vt 0.3248779 0.6801221
vt 0.3248779 0.719878
vt 0.3001221 0.719878
vt 0.3001221 0.7601221
vt 0.3248779 0.7601221
vt 0.3248779 0.7998779
vt 0.3001221 0.7998779
vt 0.3001221 0.6401221
vt 0.3248779 0.6401221
vt 0.3248779 0.6798779
vt 0.3001221 0.6798779
vt 0.2251221 0.6801221
vt 0.2498779 0.6801221
vt 0.2498779 0.719878
vt 0.2251221 0.719878
vt 0.2501221 0.6801221
vt 0.2748779 0.6801221
vt 0.2748779 0.719878
vt 0.2501221 0.719878
vt 0.2751221 0.6801221
vt 0.2998779 0.6801221
vt 0.2998779 0.719878
vt 0.2751221 0.719878
vt 0.2251221 0.6401221
vt 0.2498779 0.6401221
vt 0.2498779 0.6798779
vt 0.2251221 0.6798779
vt 0.2001221 0.6401221
vt 0.2248779 0.6401221
vt 0.2248779 0.6798779
vt 0.2001221 0.6798779
vt 0.2501221 0.6401221
vt 0.2748779 0.6401221
vt 0.2748779 0.6798779
vt 0.2501221 0.6798779
vt 0.3001221 0.5201221
vt 0.3248779 0.5201221
vt 0.3248779 0.5598779
vt 0.3001221 0.5598779
vt 0.2751221 0.4801221
vt 0.2998779 0.4801221
vt 0.2998779 0.5198779
vt 0.2751221 0.5198779
vt 0.3251221 0.4801221
vt 0.3498779 0.4801221
vt 0.3498779 0.5198779
vt 0.3251221 0.5198779
vt 0.0001220703 0.4801221
vt 0.02487793 0.4801221
vt 0.02487793 0.5198779
vt 0.0001220703 0.5198779
vt 0.05012207 0.4801221
vt 0.07487793 0.4801221
vt 0.07487793 0.5198779
vt 0.05012207 0.5198779
vt 0.07512207 0.4801221
vt 0.09987793 0.4801221
vt 0.09987793 0.5198779
vt 0.07512207 0.5198779
vt 0.1001221 0.4801221
vt 0.1248779 0.4801221
vt 0.1248779 0.5198779
vt 0.1001221 0.5198779
vt 0.1251221 0.4801221
vt 0.1498779 0.4801221
vt 0.1498779 0.5198779
vt 0.1251221 0.5198779
vt 0.02512207 0.4801221
vt 0.04987793 0.4801221
vt 0.04987793 0.5198779
vt 0.02512207 0.5198779
vt 0.1501221 0.4801221
vt 0.1748779 0.4801221
vt 0.1748779 0.5198779
vt 0.1501221 0.5198779
vt 0.0001220703 0.4401221
vt 0.02487793 0.4401221
vt 0.02487793 0.4798779
vt 0.0001220703 0.4798779
vt 0.05012207 0.4401221
vt 0.07487793 0.4401221
vt 0.07487793 0.4798779
vt 0.05012207 0.4798779
vt 0.07512207 0.4401221
vt 0.09987793 0.4401221
vt 0.09987793 0.4798779
vt 0.07512207 0.4798779
vt 0.1001221 0.4401221
vt 0.1248779 0.4401221
vt 0.1248779 0.4798779
vt 0.1001221 0.4798779
vt 0.1251221 0.4401221
vt 0.1498779 0.4401221
vt 0.1498779 0.4798779
vt 0.1251221 0.4798779
vt 0.02512207 0.4401221
vt 0.04987793 0.4401221
vt 0.04987793 0.4798779
vt 0.02512207 0.4798779
vt 0.1501221 0.4401221
vt 0.1748779 0.4401221
vt 0.1748779 0.4798779
vt 0.1501221 0.4798779
vt 0.2251221 0.8001221
vt 0.2498779 0.8001221
vt 0.2498779 0.8398779
vt 0.2251221 0.8398779
vt 0.3001221 0.8001221
vt 0.3248779 0.8001221
vt 0.3248779 0.8398779
vt 0.3001221 0.8398779
vt 0.3001221 0.4801221
vt 0.3248779 0.4801221
vt 0.3248779 0.5198779
vt 0.3001221 0.5198779
vt 0.3001221 0.5601221
vt 0.3248779 0.5601221
vt 0.3248779 0.599878
vt 0.3001221 0.599878
vt 0.4751221 0.5601221
vt 0.4998779 0.5601221
vt 0.4998779 0.599878
vt 0.4751221 0.599878

# Normal
vn 0 0 -1

# Groups (Count = 5)

g mesh_0001
f 1/1/1 2/2/1 3/3/1 4/4/1
f 5/1/1 6/2/1 7/3/1 8/4/1
f 6/1/1 9/2/1 10/3/1 7/4/1
f 9/1/1 11/2/1 12/3/1 10/4/1
f 11/1/1 13/2/1 14/3/1 12/4/1
f 13/1/1 15/2/1 16/3/1 14/4/1
f 15/1/1 17/2/1 18/3/1 16/4/1
f 17/1/1 19/2/1 20/3/1 18/4/1
f 19/1/1 21/2/1 22/3/1 20/4/1
f 21/1/1 23/2/1 1/3/1 22/4/1
f 23/1/1 24/2/1 2/3/1 1/4/1
f 24/1/1 25/2/1 26/3/1 2/4/1
f 25/1/1 27/2/1 28/3/1 26/4/1
f 27/1/1 29/2/1 30/3/1 28/4/1
f 31/1/1 32/2/1 6/3/1 5/4/1
f 32/1/1 33/2/1 9/3/1 6/4/1
f 33/1/1 34/2/1 11/3/1 9/4/1
f 34/1/1 35/2/1 13/3/1 11/4/1
f 35/1/1 36/2/1 15/3/1 13/4/1
f 36/1/1 37/2/1 17/3/1 15/4/1
f 37/1/1 38/2/1 19/3/1 17/4/1
f 38/1/1 39/2/1 21/3/1 19/4/1
f 39/1/1 40/2/1 23/3/1 21/4/1
f 40/1/1 41/2/1 24/3/1 23/4/1
f 41/1/1 42/2/1 25/3/1 24/4/1
f 42/1/1 43/2/1 27/3/1 25/4/1
f 43/1/1 44/2/1 29/3/1 27/4/1
f 45/1/1 46/2/1 32/3/1 31/4/1
f 46/1/1 47/2/1 33/3/1 32/4/1
f 47/1/1 48/2/1 34/3/1 33/4/1
f 48/1/1 49/2/1 35/3/1 34/4/1
f 49/1/1 50/2/1 36/3/1 35/4/1
f 50/1/1 51/2/1 37/3/1 36/4/1
f 51/1/1 52/2/1 38/3/1 37/4/1
f 52/1/1 53/2/1 39/3/1 38/4/1
f 53/1/1 54/2/1 40/3/1 39/4/1
f 54/1/1 55/2/1 41/3/1 40/4/1
f 55/1/1 56/2/1 42/3/1 41/4/1
f 56/1/1 57/2/1 43/3/1 42/4/1
f 57/1/1 58/2/1 44/3/1 43/4/1
f 59/1/1 60/2/1 46/3/1 45/4/1
f 60/1/1 61/2/1 47/3/1 46/4/1
f 61/1/1 62/2/1 48/3/1 47/4/1
f 62/1/1 63/2/1 49/3/1 48/4/1
f 63/1/1 64/2/1 50/3/1 49/4/1
f 64/1/1 65/2/1 51/3/1 50/4/1
f 65/1/1 66/2/1 52/3/1 51/4/1
f 66/1/1 67/2/1 53/3/1 52/4/1
f 67/1/1 68/2/1 54/3/1 53/4/1
f 68/1/1 69/2/1 55/3/1 54/4/1
f 69/1/1 70/2/1 56/3/1 55/4/1
f 70/1/1 71/2/1 57/3/1 56/4/1
f 71/1/1 72/2/1 58/3/1 57/4/1
f 73/1/1 74/2/1 60/3/1 59/4/1
f 74/1/1 75/2/1 61/3/1 60/4/1
f 75/1/1 76/2/1 62/3/1 61/4/1
f 76/1/1 77/2/1 63/3/1 62/4/1
f 77/1/1 78/2/1 64/3/1 63/4/1
f 78/1/1 79/2/1 65/3/1 64/4/1
f 79/5/1 80/6/1 66/7/1 65/8/1
f 80/1/1 81/2/1 67/3/1 66/4/1
f 81/1/1 82/2/1 68/3/1 67/4/1
f 82/1/1 83/2/1 69/3/1 68/4/1
f 83/1/1 84/2/1 70/3/1 69/4/1
f 84/1/1 85/2/1 71/3/1 70/4/1
f 85/1/1 86/2/1 72/3/1 71/4/1
f 87/1/1 88/2/1 74/3/1 73/4/1
f 88/1/1 89/2/1 75/3/1 74/4/1
f 89/1/1 90/2/1 76/3/1 75/4/1
f 90/1/1 91/2/1 77/3/1 76/4/1
f 91/1/1 92/2/1 78/3/1 77/4/1
f 92/1/1 93/2/1 79/3/1 78/4/1
f 93/1/1 94/2/1 80/3/1 79/4/1
f 94/1/1 95/2/1 81/3/1 80/4/1
f 95/1/1 96/2/1 82/3/1 81/4/1
f 96/1/1 97/2/1 83/3/1 82/4/1
f 97/1/1 98/2/1 84/3/1 83/4/1
f 98/1/1 99/2/1 85/3/1 84/4/1
f 99/1/1 100/2/1 86/3/1 85/4/1
f 101/1/1 102/2/1 88/3/1 87/4/1
f 102/1/1 103/2/1 89/3/1 88/4/1
f 103/1/1 104/2/1 90/3/1 89/4/1
f 104/1/1 105/2/1 91/3/1 90/4/1
f 105/1/1 106/2/1 92/3/1 91/4/1
f 106/1/1 107/2/1 93/3/1 92/4/1
f 107/1/1 108/2/1 94/3/1 93/4/1
f 108/1/1 109/2/1 95/3/1 94/4/1
f 109/1/1 110/2/1 96/3/1 95/4/1
f 110/1/1 111/2/1 97/3/1 96/4/1
f 111/1/1 112/2/1 98/3/1 97/4/1
f 112/1/1 113/2/1 99/3/1 98/4/1
f 113/1/1 114/2/1 100/3/1 99/4/1
f 115/1/1 116/2/1 102/3/1 101/4/1
f 116/1/1 117/2/1 103/3/1 102/4/1
f 117/1/1 118/2/1 104/3/1 103/4/1
f 118/1/1 119/2/1 105/3/1 104/4/1
f 119/1/1 120/2/1 106/3/1 105/4/1
f 120/1/1 121/2/1 107/3/1 106/4/1
f 121/1/1 122/2/1 108/3/1 107/4/1
f 122/1/1 123/2/1 109/3/1 108/4/1
f 123/1/1 124/2/1 110/3/1 109/4/1
f 124/1/1 125/2/1 111/3/1 110/4/1
f 125/1/1 126/2/1 112/3/1 111/4/1
f 126/1/1 127/2/1 113/3/1 112/4/1
f 127/1/1 128/2/1 114/3/1 113/4/1
f 129/1/1 130/2/1 121/3/1 120/4/1
f 130/1/1 131/2/1 122/3/1 121/4/1
f 131/1/1 132/2/1 123/3/1 122/4/1
f 132/1/1 133/2/1 124/3/1 123/4/1

g mesh_0002
f 103/9/1 104/10/1 90/11/1 89/12/1
f 104/9/1 105/10/1 91/11/1 90/12/1
f 105/9/1 106/10/1 92/11/1 91/12/1
f 106/9/1 107/10/1 93/11/1 92/12/1

g mesh_0003
f 134/13/1 135/14/1 136/15/1 137/16/1
f 138/17/1 139/18/1 140/19/1 141/20/1
f 139/21/1 142/22/1 143/23/1 140/24/1
f 144/25/1 145/26/1 135/27/1 134/28/1
f 145/29/1 146/30/1 147/31/1 135/32/1
f 146/33/1 148/34/1 149/35/1 147/36/1
f 148/37/1 150/38/1 151/39/1 149/40/1
f 150/41/1 152/42/1 153/43/1 151/44/1
f 152/45/1 154/46/1 155/47/1 153/48/1
f 154/29/1 156/30/1 157/31/1 155/32/1
f 156/33/1 158/34/1 159/35/1 157/36/1
f 158/37/1 160/38/1 161/39/1 159/40/1
f 160/41/1 162/42/1 163/43/1 161/44/1
f 162/45/1 164/46/1 165/47/1 163/48/1
f 164/29/1 166/30/1 167/31/1 165/32/1
f 166/33/1 168/34/1 169/35/1 167/36/1
f 168/37/1 170/38/1 138/39/1 169/40/1
f 170/49/1 171/50/1 139/51/1 138/52/1
f 171/21/1 172/22/1 142/23/1 139/24/1
f 173/53/1 174/54/1 145/55/1 144/56/1
f 174/57/1 175/58/1 146/59/1 145/60/1
f 175/61/1 176/62/1 148/63/1 146/64/1
f 176/65/1 177/66/1 150/67/1 148/68/1
f 177/69/1 178/70/1 152/71/1 150/72/1
f 178/73/1 179/74/1 154/75/1 152/76/1
f 179/57/1 180/58/1 156/59/1 154/60/1
f 180/61/1 181/62/1 158/63/1 156/64/1
f 181/65/1 182/66/1 160/67/1 158/68/1
f 182/69/1 4/70/1 162/71/1 160/72/1
f 4/73/1 3/74/1 164/75/1 162/76/1
f 3/57/1 183/58/1 166/59/1 164/60/1
f 183/61/1 184/62/1 168/63/1 166/64/1
f 184/65/1 185/66/1 170/67/1 168/68/1
f 185/77/1 186/78/1 171/79/1 170/80/1
f 186/21/1 187/22/1 172/23/1 171/24/1
f 188/81/1 8/82/1 174/83/1 173/84/1
f 8/85/1 7/86/1 175/87/1 174/88/1
f 7/89/1 10/90/1 176/91/1 175/92/1
f 10/93/1 12/94/1 177/95/1 176/96/1
f 12/97/1 14/98/1 178/99/1 177/100/1
f 14/101/1 16/102/1 179/103/1 178/104/1
f 16/85/1 18/86/1 180/87/1 179/88/1
f 18/89/1 20/90/1 181/91/1 180/92/1
f 20/93/1 22/94/1 182/95/1 181/96/1
f 22/97/1 1/98/1 4/99/1 182/100/1
f 1/101/1 2/102/1 3/103/1 4/104/1
f 2/85/1 26/86/1 183/87/1 3/88/1
f 26/89/1 28/90/1 184/91/1 183/92/1
f 28/93/1 30/94/1 185/95/1 184/96/1
f 30/105/1 189/106/1 186/107/1 185/108/1
f 189/21/1 190/22/1 187/23/1 186/24/1
f 191/109/1 5/110/1 8/111/1 188/112/1
f 29/113/1 192/114/1 189/115/1 30/116/1
f 192/21/1 193/22/1 190/23/1 189/24/1
f 194/109/1 31/110/1 5/111/1 191/112/1
f 32/117/1 33/118/1 9/119/1 6/120/1
f 33/121/1 34/122/1 11/123/1 9/124/1
f 34/121/1 35/122/1 13/123/1 11/124/1
f 35/121/1 36/122/1 15/123/1 13/124/1
f 36/121/1 37/122/1 17/123/1 15/124/1
f 37/121/1 38/122/1 19/123/1 17/124/1
f 38/125/1 39/126/1 21/127/1 19/128/1
f 39/129/1 40/130/1 23/131/1 21/132/1
f 44/113/1 195/114/1 192/115/1 29/116/1
f 195/21/1 196/22/1 193/23/1 192/24/1
f 197/109/1 45/110/1 31/111/1 194/112/1
f 46/117/1 47/118/1 33/119/1 32/120/1
f 47/121/1 48/122/1 34/123/1 33/124/1
f 48/121/1 49/122/1 35/123/1 34/124/1
f 49/121/1 50/122/1 36/123/1 35/124/1
f 50/121/1 51/122/1 37/123/1 36/124/1
f 51/121/1 52/122/1 38/123/1 37/124/1
f 52/133/1 53/134/1 39/135/1 38/136/1
f 53/137/1 54/138/1 40/139/1 39/140/1
f 58/113/1 198/114/1 195/115/1 44/116/1
f 198/21/1 199/22/1 196/23/1 195/24/1
f 200/109/1 59/110/1 45/111/1 197/112/1
f 60/141/1 61/142/1 47/143/1 46/144/1
f 61/145/1 62/146/1 48/147/1 47/148/1
f 62/145/1 63/146/1 49/147/1 48/148/1
f 63/149/1 64/150/1 50/151/1 49/152/1
f 64/145/1 65/146/1 51/147/1 50/148/1
f 65/145/1 66/146/1 52/147/1 51/148/1
f 66/129/1 67/130/1 53/131/1 52/132/1
f 72/113/1 201/114/1 198/115/1 58/116/1
f 201/21/1 202/22/1 199/23/1 198/24/1
f 203/109/1 73/110/1 59/111/1 200/112/1
f 74/153/1 75/154/1 61/155/1 60/156/1
f 75/157/1 76/158/1 62/159/1 61/160/1
f 76/157/1 77/158/1 63/159/1 62/160/1
f 77/157/1 78/158/1 64/159/1 63/160/1
f 78/161/1 79/162/1 65/163/1 64/164/1
f 80/137/1 81/138/1 67/139/1 66/140/1
f 86/113/1 204/114/1 201/115/1 72/116/1
f 204/21/1 205/22/1 202/23/1 201/24/1
f 206/109/1 87/110/1 73/111/1 203/112/1
f 88/165/1 89/166/1 75/167/1 74/168/1
f 94/165/1 95/166/1 81/167/1 80/168/1
f 100/113/1 207/114/1 204/115/1 86/116/1
f 207/21/1 208/22/1 205/23/1 204/24/1
f 209/109/1 101/110/1 87/111/1 206/112/1
f 102/169/1 103/170/1 89/171/1 88/172/1
f 108/173/1 109/174/1 95/175/1 94/176/1
f 114/113/1 210/114/1 207/115/1 100/116/1
f 210/21/1 211/22/1 208/23/1 207/24/1
f 212/109/1 115/110/1 101/111/1 209/112/1
f 128/113/1 213/114/1 210/115/1 114/116/1
f 213/21/1 214/22/1 211/23/1 210/24/1
f 215/177/1 216/178/1 115/179/1 212/180/1
f 216/181/1 217/182/1 116/183/1 115/184/1
f 217/185/1 218/186/1 117/187/1 116/188/1
f 218/189/1 219/190/1 118/191/1 117/192/1
f 219/193/1 220/194/1 119/195/1 118/196/1
f 220/197/1 129/198/1 120/199/1 119/200/1
f 129/181/1 130/182/1 121/183/1 120/184/1
f 130/185/1 131/186/1 122/187/1 121/188/1
f 131/189/1 132/190/1 123/191/1 122/192/1
f 132/193/1 133/194/1 124/195/1 123/196/1
f 133/197/1 221/198/1 125/199/1 124/200/1
f 221/181/1 222/182/1 126/183/1 125/184/1
f 222/185/1 223/186/1 127/187/1 126/188/1
f 223/189/1 224/190/1 128/191/1 127/192/1
f 224/201/1 225/202/1 213/203/1 128/204/1
f 226/205/1 227/206/1 216/207/1 215/208/1
f 227/209/1 228/210/1 217/211/1 216/212/1
f 228/213/1 229/214/1 218/215/1 217/216/1
f 229/217/1 230/218/1 219/219/1 218/220/1
f 230/221/1 231/222/1 220/223/1 219/224/1
f 231/225/1 232/226/1 129/227/1 220/228/1
f 232/209/1 233/210/1 130/211/1 129/212/1
f 233/213/1 234/214/1 131/215/1 130/216/1
f 234/217/1 235/218/1 132/219/1 131/220/1
f 235/221/1 236/222/1 133/223/1 132/224/1
f 236/225/1 237/226/1 221/227/1 133/228/1
f 237/209/1 238/210/1 222/211/1 221/212/1
f 238/213/1 239/214/1 223/215/1 222/216/1
f 239/217/1 240/218/1 224/219/1 223/220/1
f 240/229/1 241/230/1 225/231/1 224/232/1

g mesh_0004
f 242/21/1 134/22/1 137/23/1 243/24/1
f 134/21/1 135/22/1 136/23/1 137/24/1
f 135/21/1 147/22/1 244/23/1 136/24/1
f 147/21/1 149/22/1 245/23/1 244/24/1
f 149/21/1 151/22/1 246/23/1 245/24/1
f 151/21/1 153/22/1 247/23/1 246/24/1
f 153/21/1 155/22/1 248/23/1 247/24/1
f 155/21/1 157/22/1 249/23/1 248/24/1
f 157/21/1 159/22/1 250/23/1 249/24/1
f 159/21/1 161/22/1 251/23/1 250/24/1
f 161/21/1 163/22/1 252/23/1 251/24/1
f 163/21/1 165/22/1 253/23/1 252/24/1
f 165/21/1 167/22/1 254/23/1 253/24/1
f 167/21/1 169/22/1 255/23/1 254/24/1
f 169/21/1 138/22/1 141/23/1 255/24/1
f 138/21/1 139/22/1 140/23/1 141/24/1
f 256/21/1 144/22/1 134/23/1 242/24/1
f 257/21/1 173/22/1 144/23/1 256/24/1
f 258/21/1 259/22/1 257/23/1 260/24/1
f 259/21/1 188/22/1 173/23/1 257/24/1
f 261/21/1 262/22/1 259/23/1 258/24/1
f 262/21/1 191/22/1 188/23/1 259/24/1
f 6/233/1 9/234/1 10/235/1 7/236/1
f 9/121/1 11/122/1 12/123/1 10/124/1
f 11/121/1 13/122/1 14/123/1 12/124/1
f 13/121/1 15/122/1 16/123/1 14/124/1
f 15/121/1 17/122/1 18/123/1 16/124/1
f 17/121/1 19/122/1 20/123/1 18/124/1
f 19/121/1 21/122/1 22/123/1 20/124/1
f 21/237/1 23/238/1 1/239/1 22/240/1
f 263/21/1 264/22/1 262/23/1 261/24/1
f 264/21/1 194/22/1 191/23/1 262/24/1
f 265/21/1 197/22/1 194/23/1 264/24/1
f 266/21/1 200/22/1 197/23/1 265/24/1
f 267/21/1 203/22/1 200/23/1 266/24/1
f 74/241/1 75/242/1 61/243/1 60/244/1
f 80/241/1 81/242/1 67/243/1 66/244/1
f 268/21/1 206/22/1 203/23/1 267/24/1
f 269/21/1 270/22/1 268/23/1 271/24/1
f 270/21/1 209/22/1 206/23/1 268/24/1
f 107/245/1 108/246/1 94/247/1 93/248/1
f 272/21/1 273/22/1 270/23/1 269/24/1
f 273/21/1 212/22/1 209/23/1 270/24/1
f 213/21/1 214/22/1 211/23/1 210/24/1
f 274/21/1 275/22/1 273/23/1 272/24/1
f 275/21/1 215/22/1 212/23/1 273/24/1
f 225/21/1 276/22/1 214/23/1 213/24/1
f 277/21/1 278/22/1 275/23/1 274/24/1
f 278/21/1 226/22/1 215/23/1 275/24/1
f 240/229/1 241/230/1 225/231/1 224/232/1
f 241/21/1 279/22/1 276/23/1 225/24/1
f 280/21/1 281/22/1 278/23/1 277/24/1
f 281/21/1 282/22/1 226/23/1 278/24/1
f 282/21/1 283/22/1 227/23/1 226/24/1
f 283/21/1 284/22/1 228/23/1 227/24/1
f 284/21/1 285/22/1 229/23/1 228/24/1
f 285/21/1 286/22/1 230/23/1 229/24/1
f 286/21/1 287/22/1 231/23/1 230/24/1
f 287/21/1 288/22/1 232/23/1 231/24/1
f 288/21/1 289/22/1 233/23/1 232/24/1
f 289/21/1 290/22/1 234/23/1 233/24/1
f 290/21/1 291/22/1 235/23/1 234/24/1
f 291/21/1 292/22/1 236/23/1 235/24/1
f 292/21/1 293/22/1 237/23/1 236/24/1
f 293/21/1 294/22/1 238/23/1 237/24/1
f 294/21/1 295/22/1 239/23/1 238/24/1
f 295/21/1 296/22/1 240/23/1 239/24/1
f 296/21/1 297/22/1 241/23/1 240/24/1
f 297/21/1 298/22/1 279/23/1 241/24/1
f 299/21/1 300/22/1 285/23/1 284/24/1
f 300/21/1 301/22/1 286/23/1 285/24/1
f 301/21/1 302/22/1 287/23/1 286/24/1
f 302/21/1 303/22/1 288/23/1 287/24/1
f 303/21/1 304/22/1 289/23/1 288/24/1

g mesh_tile_0420
f 305/249/1 306/250/1 307/251/1 308/252/1

