# Wavefront OBJ file automatically generated by Tiled2Unity

# Vertices (Count = 74)
v -192 -80 0
v -208 -80 0
v -208 -64 0
v -192 -64 0
v -224 -80 0
v -224 -64 0
v -240 -80 0
v -240 -64 0
v -256 -80 0
v -256 -64 0
v -272 -80 0
v -272 -64 0
v -288 -80 0
v -288 -64 0
v -304 -80 0
v -304 -64 0
v -320 -80 0
v -320 -64 0
v -336 -80 0
v -336 -64 0
v -192 -96 0
v -208 -96 0
v -320 -96 0
v -336 -96 0
v -192 -112 0
v -208 -112 0
v -288 -112 0
v -304 -112 0
v -304 -96 0
v -288 -96 0
v -320 -112 0
v -336 -112 0
v -192 -128 0
v -208 -128 0
v -288 -128 0
v -304 -128 0
v -320 -128 0
v -336 -128 0
v -192 -144 0
v -208 -144 0
v -288 -144 0
v -304 -144 0
v -192 -160 0
v -208 -160 0
v -224 -160 0
v -224 -144 0
v -240 -160 0
v -240 -144 0
v -256 -160 0
v -256 -144 0
v -272 -160 0
v -272 -144 0
v -288 -160 0
v -304 -160 0
v -192 -176 0
v -208 -176 0
v -224 -176 0
v -240 -176 0
v -256 -176 0
v -272 -176 0
v -288 -176 0
v -304 -176 0
v -224 -96 0
v -240 -96 0
v -224 -112 0
v -240 -112 0
v -256 -112 0
v -256 -96 0
v -272 -112 0
v -272 -96 0
v -224 -128 0
v -240 -128 0
v -256 -128 0
v -272 -128 0

# Texture cooridinates (Count = 84)
vt 0.02512207 0.9201221
vt 0.04987793 0.9201221
vt 0.04987793 0.9598779
vt 0.02512207 0.9598779
vt 0.0001220703 0.9201221
vt 0.02487793 0.9201221
vt 0.02487793 0.9598779
vt 0.0001220703 0.9598779
vt 0.0001220703 0.6801221
vt 0.02487793 0.6801221
vt 0.02487793 0.719878
vt 0.0001220703 0.719878
vt 0.6251221 0.6801221
vt 0.6498779 0.6801221
vt 0.6498779 0.719878
vt 0.6251221 0.719878
vt 0.4751221 0.6001221
vt 0.4998779 0.6001221
vt 0.4998779 0.6398779
vt 0.4751221 0.6398779
vt 0.5001221 0.4801221
vt 0.5248779 0.4801221
vt 0.5248779 0.5198779
vt 0.5001221 0.5198779
vt 0.4001221 0.7601221
vt 0.4248779 0.7601221
vt 0.4248779 0.7998779
vt 0.4001221 0.7998779
vt 0.3001221 0.8001221
vt 0.3248779 0.8001221
vt 0.3248779 0.8398779
vt 0.3001221 0.8398779
vt 0.5001221 0.4001221
vt 0.5248779 0.4001221
vt 0.5248779 0.4398779
vt 0.5001221 0.4398779
vt 0.5501221 0.6801221
vt 0.5748779 0.6801221
vt 0.5748779 0.719878
vt 0.5501221 0.719878
vt 0.3001221 0.7201221
vt 0.3248779 0.7201221
vt 0.3248779 0.7598779
vt 0.3001221 0.7598779
vt 0.2251221 0.7201221
vt 0.2498779 0.7201221
vt 0.2498779 0.7598779
vt 0.2251221 0.7598779
vt 0.2501221 0.6801221
vt 0.2748779 0.6801221
vt 0.2748779 0.719878
vt 0.2501221 0.719878
vt 0.5751221 0.3601221
vt 0.599878 0.3601221
vt 0.599878 0.3998779
vt 0.5751221 0.3998779
vt 0.5001221 0.3601221
vt 0.5248779 0.3601221
vt 0.5248779 0.3998779
vt 0.5001221 0.3998779
vt 0.3251221 0.7601221
vt 0.3498779 0.7601221
vt 0.3498779 0.7998779
vt 0.3251221 0.7998779
vt 0.2501221 0.7601221
vt 0.2748779 0.7601221
vt 0.2748779 0.7998779
vt 0.2501221 0.7998779
vt 0.3001221 0.7601221
vt 0.3248779 0.7601221
vt 0.3248779 0.7998779
vt 0.3001221 0.7998779
vt 0.525122 0.3601221
vt 0.5498779 0.3601221
vt 0.5498779 0.3998779
vt 0.525122 0.3998779
vt 0.5501221 0.3601221
vt 0.5748779 0.3601221
vt 0.5748779 0.3998779
vt 0.5501221 0.3998779
vt 0.3001221 0.6801221
vt 0.3248779 0.6801221
vt 0.3248779 0.719878
vt 0.3001221 0.719878

# Normal
vn 0 0 -1

# Groups (Count = 5)

g mesh_0001
f 1/1/1 2/2/1 3/3/1 4/4/1
f 2/1/1 5/2/1 6/3/1 3/4/1
f 5/1/1 7/2/1 8/3/1 6/4/1
f 7/1/1 9/2/1 10/3/1 8/4/1
f 9/1/1 11/2/1 12/3/1 10/4/1
f 11/1/1 13/2/1 14/3/1 12/4/1
f 13/1/1 15/2/1 16/3/1 14/4/1
f 15/1/1 17/2/1 18/3/1 16/4/1
f 17/1/1 19/2/1 20/3/1 18/4/1
f 21/1/1 22/2/1 2/3/1 1/4/1
f 23/1/1 24/2/1 19/3/1 17/4/1
f 25/1/1 26/2/1 22/3/1 21/4/1
f 27/5/1 28/6/1 29/7/1 30/8/1
f 28/5/1 31/6/1 23/7/1 29/8/1
f 31/1/1 32/2/1 24/3/1 23/4/1
f 33/1/1 34/2/1 26/3/1 25/4/1
f 35/1/1 36/2/1 28/3/1 27/4/1
f 36/1/1 37/2/1 31/3/1 28/4/1
f 37/1/1 38/2/1 32/3/1 31/4/1
f 39/1/1 40/2/1 34/3/1 33/4/1
f 41/1/1 42/2/1 36/3/1 35/4/1
f 43/1/1 44/2/1 40/3/1 39/4/1
f 44/5/1 45/6/1 46/7/1 40/8/1
f 45/5/1 47/6/1 48/7/1 46/8/1
f 47/5/1 49/6/1 50/7/1 48/8/1
f 49/5/1 51/6/1 52/7/1 50/8/1
f 51/5/1 53/6/1 41/7/1 52/8/1
f 53/1/1 54/2/1 42/3/1 41/4/1
f 55/1/1 56/2/1 44/3/1 43/4/1
f 56/1/1 57/2/1 45/3/1 44/4/1
f 57/1/1 58/2/1 47/3/1 45/4/1
f 58/1/1 59/2/1 49/3/1 47/4/1
f 59/1/1 60/2/1 51/3/1 49/4/1
f 60/1/1 61/2/1 53/3/1 51/4/1
f 61/1/1 62/2/1 54/3/1 53/4/1

g mesh_0002
f 1/9/1 2/10/1 3/11/1 4/12/1
f 17/9/1 19/10/1 20/11/1 18/12/1
f 36/9/1 37/10/1 31/11/1 28/12/1
f 37/9/1 38/10/1 32/11/1 31/12/1

g mesh_0003
f 63/13/1 64/14/1 7/15/1 5/16/1
f 26/17/1 65/18/1 63/19/1 22/20/1
f 65/17/1 66/18/1 64/19/1 63/20/1
f 66/17/1 67/18/1 68/19/1 64/20/1
f 67/17/1 69/18/1 70/19/1 68/20/1
f 69/17/1 27/18/1 30/19/1 70/20/1
f 34/17/1 71/18/1 65/19/1 26/20/1
f 71/17/1 72/18/1 66/19/1 65/20/1
f 72/17/1 73/18/1 67/19/1 66/20/1
f 73/17/1 74/18/1 69/19/1 67/20/1
f 74/17/1 35/18/1 27/19/1 69/20/1
f 40/17/1 46/18/1 71/19/1 34/20/1
f 46/17/1 48/18/1 72/19/1 71/20/1
f 48/17/1 50/18/1 73/19/1 72/20/1
f 50/17/1 52/18/1 74/19/1 73/20/1
f 52/17/1 41/18/1 35/19/1 74/20/1
f 47/17/1 49/18/1 50/19/1 48/20/1

g mesh_0004
f 1/21/1 2/22/1 3/23/1 4/24/1
f 2/25/1 5/26/1 6/27/1 3/28/1
f 5/25/1 7/26/1 8/27/1 6/28/1
f 7/25/1 9/26/1 10/27/1 8/28/1
f 9/25/1 11/26/1 12/27/1 10/28/1
f 11/25/1 13/26/1 14/27/1 12/28/1
f 13/25/1 15/26/1 16/27/1 14/28/1
f 15/25/1 17/26/1 18/27/1 16/28/1
f 17/29/1 19/30/1 20/31/1 18/32/1
f 21/33/1 22/34/1 2/35/1 1/36/1
f 22/37/1 63/38/1 5/39/1 2/40/1
f 64/37/1 68/38/1 9/39/1 7/40/1
f 68/37/1 70/38/1 11/39/1 9/40/1
f 70/37/1 30/38/1 13/39/1 11/40/1
f 30/37/1 29/38/1 15/39/1 13/40/1
f 29/37/1 23/38/1 17/39/1 15/40/1
f 23/41/1 24/42/1 19/43/1 17/44/1
f 25/45/1 26/46/1 22/47/1 21/48/1
f 28/49/1 31/50/1 23/51/1 29/52/1
f 31/53/1 32/54/1 24/55/1 23/56/1
f 33/45/1 34/46/1 26/47/1 25/48/1
f 39/45/1 40/46/1 34/47/1 33/48/1
f 43/57/1 44/58/1 40/59/1 39/60/1
f 55/61/1 56/62/1 44/63/1 43/64/1
f 56/61/1 57/62/1 45/63/1 44/64/1
f 57/61/1 58/62/1 47/63/1 45/64/1
f 58/61/1 59/62/1 49/63/1 47/64/1
f 59/61/1 60/62/1 51/63/1 49/64/1
f 60/61/1 61/62/1 53/63/1 51/64/1
f 61/61/1 62/62/1 54/63/1 53/64/1

g mesh_0005
f 27/65/1 28/66/1 29/67/1 30/68/1
f 35/69/1 36/70/1 28/71/1 27/72/1
f 41/41/1 42/42/1 36/43/1 35/44/1
f 44/73/1 45/74/1 46/75/1 40/76/1
f 45/73/1 47/74/1 48/75/1 46/76/1
f 47/77/1 49/78/1 50/79/1 48/80/1
f 49/73/1 51/74/1 52/75/1 50/76/1
f 51/73/1 53/74/1 41/75/1 52/76/1
f 53/81/1 54/82/1 42/83/1 41/84/1

